<?xml version="1.0" standalone="no"?>
<!DOCTYPE svg PUBLIC "-//W3C//DTD SVG 20010904//EN"
 "http://www.w3.org/TR/2001/REC-SVG-20010904/DTD/svg10.dtd">
<svg version="1.0" xmlns="http://www.w3.org/2000/svg"
 width="256.000000pt" height="256.000000pt" viewBox="0 0 256.000000 256.000000"
 preserveAspectRatio="xMidYMid meet">
<metadata>
Created by potrace 1.14, written by Peter Selinger 2001-2017
</metadata>
<g transform="translate(0.000000,256.000000) scale(0.100000,-0.100000)"
fill="#000000" stroke="none">
<path d="M1246 2538 c2 -13 5 -54 7 -93 3 -67 3 -69 30 -70 15 -1 27 -1 27 -1
1 1 3 43 7 94 l5 92 -40 0 c-35 0 -39 -2 -36 -22z"/>
<path d="M478 2268 c-24 -30 -23 -33 19 -70 20 -18 46 -43 59 -55 28 -28 35
-28 55 -5 15 17 11 23 -45 85 -34 37 -63 67 -66 67 -3 0 -13 -10 -22 -22z"/>
<path d="M2008 2228 c-69 -77 -71 -82 -50 -102 17 -15 21 -14 49 12 17 15 47
40 67 57 20 16 36 33 36 37 0 4 -11 18 -24 31 l-24 25 -54 -60z"/>
<path d="M1195 2143 c-230 -39 -385 -133 -511 -308 -159 -221 -172 -520 -34
-796 48 -96 82 -143 173 -239 77 -81 126 -141 146 -178 11 -20 10 -22 -16 -23
-15 -1 -32 -1 -36 0 -8 1 -5 -30 10 -109 3 -14 6 -30 7 -37 1 -7 5 -15 8 -18
3 -4 159 -7 346 -8 l340 -2 8 45 c8 49 9 53 18 96 6 28 5 29 -31 32 -20 1 -39
4 -41 7 -8 7 72 108 155 195 128 135 195 251 239 417 55 205 29 412 -73 578
-49 80 -95 131 -188 210 -56 47 -210 114 -300 130 -45 8 -189 13 -220 8z m375
-1074 c0 -8 -10 -27 -57 -104 -155 -257 -172 -280 -193 -259 -8 8 14 48 123
229 72 118 99 154 112 149 8 -4 15 -10 15 -15z m-470 -126 c116 -203 130 -230
123 -237 -14 -13 -40 -5 -51 17 -10 20 -47 86 -99 177 -72 126 -84 150 -78
160 16 25 38 1 105 -117z"/>
<path d="M140 1460 c0 -39 1 -40 28 -36 15 2 57 5 93 5 l65 1 0 30 c0 27 -3
30 -30 31 -17 0 -59 3 -93 5 l-63 6 0 -42z"/>
<path d="M2247 1478 c-6 -4 -12 -18 -13 -32 -1 -24 2 -26 45 -27 25 -1 67 -3
94 -5 l47 -3 0 40 0 40 -80 -3 c-45 -1 -86 -6 -93 -10z"/>
<path d="M520 750 c-30 -27 -58 -50 -62 -50 -16 0 -7 -27 17 -50 l25 -23 42
49 c24 26 51 56 61 66 9 10 17 21 17 24 0 7 -31 33 -40 34 -3 0 -30 -22 -60
-50z"/>
<path d="M1957 785 c-27 -20 -24 -30 37 -99 l60 -66 27 26 27 26 -47 41 c-25
23 -55 52 -67 63 -17 17 -24 19 -37 9z"/>
<path d="M968 359 c-6 -4 -8 -11 -5 -15 3 -5 8 -30 11 -56 11 -85 -16 -78 312
-78 l293 0 6 38 c4 20 11 52 16 71 4 19 6 37 3 40 -7 7 -624 7 -636 0z"/>
<path d="M1085 142 c-2 -2 -1 -11 2 -20 13 -44 31 -66 73 -90 38 -23 56 -27
120 -27 64 1 81 5 117 28 42 26 78 78 71 99 -3 8 -65 12 -192 12 -103 1 -189
-1 -191 -2z"/>
</g>
</svg>
