<!--?xml version="1.0" encoding="utf-8"?-->
<!-- Generator: Adobe Illustrator 18.0.0, SVG Export Plug-In . SVG Version: 6.00 Build 0)  -->

<svg version="1.1" id="_x32_" xmlns="http://www.w3.org/2000/svg" xmlns:xlink="http://www.w3.org/1999/xlink" x="0px" y="0px" viewBox="0 0 512 512" style="width: 256px; height: 256px; opacity: 1;" xml:space="preserve">
<style type="text/css">
	.st0{fill:#4B4B4B;}
</style>
<g>
	<path class="st0" d="M222.775,109.266c-17.752,7.363-33.62,17.998-47.365,31.66c-13.661,13.743-24.379,29.614-31.659,47.366
		c-5.317,12.762,0.737,27.323,13.497,32.64c3.11,1.309,6.383,1.882,9.573,1.882c9.818,0,19.06-5.808,23.069-15.461
		c4.828-11.535,11.863-22.006,20.861-31.087c9.081-8.998,19.47-16.034,31.087-20.861c12.762-5.235,18.816-19.878,13.58-32.64
		C250.1,110.002,235.456,104.031,222.775,109.266z" style="fill: rgb(255, 218, 0);"></path>
	<polygon class="st0" points="197.824,469.705 315.872,469.705 321.68,439.355 191.934,439.355 	" style="fill: rgb(255, 218, 0);"></polygon>
	<path class="st0" d="M255.346,512c21.298,0,38.564-12.826,38.564-28.648h-77.127C216.783,499.174,234.048,512,255.346,512z" style="fill: rgb(255, 218, 0);"></path>
	<path class="st0" d="M88.699,375.673c3.42,3.687,6.983,7.286,10.65,10.756l25.029-27.414c-2.748-2.612-5.424-5.317-8.014-8.089
		L88.699,375.673z" style="fill: rgb(255, 218, 0);"></path>
	<path class="st0" d="M28.12,212.084c-0.105,2.812-0.16,5.632-0.16,8.464c0,2.257,0.032,4.522,0.103,6.79l26.477-1.374h10.608
		c-0.048-1.81-0.079-3.615-0.079-5.417c0-2.137,0.032-4.266,0.103-6.383L28.12,212.084z" style="fill: rgb(255, 218, 0);"></path>
	<path class="st0" d="M125.648,81.197l-24.797-27.622c-3.714,3.459-7.302,7.022-10.737,10.657l27.442,24.998
		C120.184,86.47,122.884,83.786,125.648,81.197z" style="fill: rgb(255, 218, 0);"></path>
	<path class="st0" d="M256.155,37.112c2.086,0,4.164,0.032,6.232,0.096l1.965-37.065C261.612,0.048,258.841,0,256.107,0
		c-2.34,0-4.666,0.036-6.918,0.104l2.302,37.061C253.048,37.129,254.605,37.112,256.155,37.112z" style="fill: rgb(255, 218, 0);"></path>
	<path class="st0" d="M483.919,213.649l-37.068,1.906c0.048,1.778,0.071,3.555,0.071,5.32c0,2.265-0.04,4.525-0.119,6.774
		l37.06,2.145c0.121-2.96,0.176-5.932,0.176-8.919C484.04,218.495,484.001,216.102,483.919,213.649z" style="fill: rgb(255, 218, 0);"></path>
	<path class="st0" d="M387.341,82.144c2.766,2.62,5.442,5.312,8.013,8.057l27.634-24.786c-3.435-3.691-7.013-7.29-10.69-10.753
		L387.341,82.144z" style="fill: rgb(255, 218, 0);"></path>
	<path class="st0" d="M386.081,360.482l24.708,27.698c3.692-3.412,7.294-6.978,10.777-10.657l-27.402-25.037
		C391.552,355.229,388.844,357.906,386.081,360.482z" style="fill: rgb(255, 218, 0);"></path>
	<path class="st0" d="M358.902,124.973C332.56,98.631,296.156,82.351,255.99,82.351c-40.166,0-76.57,16.28-102.831,42.622
		c-26.342,26.342-42.621,62.746-42.621,102.912c0,42.212,21.106,91.787,47.53,117.475c21.841,21.27,33.214,36.485,39.102,47.12
		h-15.624l6.543,33.786h137.518l6.464-33.786h-17.263c5.89-10.635,17.263-25.851,39.104-47.12
		c26.423-25.688,47.53-75.262,47.53-117.475C401.442,187.719,385.161,151.315,358.902,124.973z M242.499,372.661
		c-0.466,0.188-0.947,0.309-1.428,0.368c-1.941,0.24-3.871-0.529-4.705-2.015l-38.278-68.115c-1.042-1.853,0.016-4.121,2.362-5.064
		c2.346-0.945,5.093-0.206,6.135,1.647l38.278,68.115C245.905,369.45,244.847,371.718,242.499,372.661z M241.837,155.404
		c-11.617,4.827-22.006,11.862-31.087,20.861c-8.998,9.081-16.033,19.552-20.861,31.087c-4.01,9.653-13.251,15.461-23.069,15.461
		c-3.19,0-6.462-0.572-9.573-1.882c-12.76-5.317-18.814-19.878-13.497-32.64c7.28-17.752,17.998-33.623,31.659-47.366
		c13.745-13.662,29.613-24.297,47.365-31.66c12.681-5.235,27.325,0.736,32.642,13.498
		C260.653,135.526,254.599,150.169,241.837,155.404z M313.819,300.148l-42.334,70.032c-0.923,1.527-2.902,2.388-4.832,2.241
		c-0.478-0.036-0.953-0.134-1.409-0.3c-2.292-0.833-3.219-3.053-2.066-4.958l42.331-70.031c1.153-1.906,3.946-2.776,6.24-1.942
		C314.043,296.022,314.97,298.242,313.819,300.148z" style="fill: rgb(255, 218, 0);"></path>
</g>
</svg>
