<!--?xml version="1.0" encoding="utf-8"?-->
<!-- Generator: Adobe Illustrator 15.1.0, SVG Export Plug-In . SVG Version: 6.00 Build 0)  -->

<svg version="1.1" id="_x32_" xmlns="http://www.w3.org/2000/svg" xmlns:xlink="http://www.w3.org/1999/xlink" x="0px" y="0px" width="512px" height="512px" viewBox="0 0 512 512" style="width: 256px; height: 256px; opacity: 1;" xml:space="preserve">
<style type="text/css">

	.st0{fill:#4B4B4B;}

</style>
<g>
	<path class="st0" d="M256,0c-10.719,0-21.359,0.641-31.75,2C97.844,17.594,0,125.359,0,256c0,141.438,114.563,256,256,256
		c79.281,0,150.156-36,197.125-92.641C489.922,375.031,512,318.078,512,256C512,114.641,397.359,0,256,0z M64,256
		c0-78.25,47.281-146.734,116.031-176.344c-9.531,26.813-14.75,55.641-14.75,85.703c0,121.641,84.906,223.406,198.641,249.469
		C332.453,436.25,295.031,448,256,448C150.125,448,64,361.875,64,256z" style="fill: rgb(57, 60, 75);"></path>
</g>
</svg>
