<!--?xml version="1.0" encoding="utf-8"?-->
<!-- Generator: Adobe Illustrator 18.1.1, SVG Export Plug-In . SVG Version: 6.00 Build 0)  -->

<svg version="1.1" id="_x32_" xmlns="http://www.w3.org/2000/svg" xmlns:xlink="http://www.w3.org/1999/xlink" x="0px" y="0px" viewBox="0 0 512 512" style="width: 256px; height: 256px; opacity: 1;" xml:space="preserve">
<style type="text/css">
	.st0{fill:#4B4B4B;}
</style>
<g>
	<path class="st0" d="M512,256l-61.566-52.111l27.283-75.919l-79.414-14.273L384.03,34.273l-75.919,27.292L256,0l-52.111,61.565
		L127.97,34.283l-14.273,79.414L34.273,127.97l27.292,75.919L0,256l61.565,52.111L34.282,384.03l79.415,14.273l14.273,79.424
		l75.919-27.292L256,512l52.111-61.565l75.919,27.282l14.273-79.414l79.424-14.273l-27.293-75.919L512,256z M256,427.464
		c-94.687,0-171.474-76.777-171.474-171.464S161.313,84.536,256,84.536S427.474,161.313,427.474,256S350.687,427.464,256,427.464z" style="fill: rgb(255, 189, 0);"></path>
	<path class="st0" d="M256,124.162c-72.818,0-131.838,59.021-131.838,131.838S183.182,387.849,256,387.849
		c72.818,0,131.838-59.031,131.838-131.849S328.818,124.162,256,124.162z" style="fill: rgb(255, 189, 0);"></path>
</g>
</svg>
